<?xml version="1.0" encoding="utf-8"?>
<!-- Generator: Adobe Illustrator 23.0.1, SVG Export Plug-In . SVG Version: 6.00 Build 0)  -->
<svg version="1.1" id="Layer_1" xmlns="http://www.w3.org/2000/svg" xmlns:xlink="http://www.w3.org/1999/xlink" x="0px" y="0px"
	 viewBox="0 0 1240 824" style="enable-background:new 0 0 1280 1024;" xml:space="preserve">
<style type="text/css">
	.st0{fill:#1A1A1A;}
	.st1{fill:#666666;}
	.st2{fill:#C1272D;}
	.st3{fill:#333333;}
	.st4{fill:#FFFFFF;}
</style>
<g>
	<path d="M559.86,516.68c0,10.75,5.01,18.08,16.98,17.59v4.15c-13.56,1.22-21.5-7.7-21.5-21.74v-36.64h-8.55v-4.52h8.55v-13.44h4.52
		v13.44h16.98v4.52h-16.98V516.68z"/>
	<path d="M639.74,538.43h-4.52v-10.38c-4.28,7.33-12.09,11.85-21.99,11.85c-15.27,0-26.38-11.12-26.38-26.38v-37.99h4.52v37.99
		c0,12.7,9.28,21.86,21.86,21.86c12.83,0,21.99-9.16,21.99-21.86v-37.99h4.52V538.43z"/>
	<path d="M710.22,538.43h-4.52v-37.99c0-13.8-7.45-22.11-21.25-22.11c-12.7,0-22.6,9.41-22.6,22.11v37.99h-4.52v-62.91h4.52v10.63
		c4.52-7.45,12.7-12.21,22.72-12.21c16.12,0,25.65,10.14,25.65,26.51V538.43z"/>
	<path d="M726.34,506.91c0.12,16.37,12.34,28.46,27.61,28.46c14.78,0,21.5-8.18,24.55-16.49h4.76
		c-4.4,13.56-14.54,21.01-29.31,21.01c-17.96,0-32.12-14.41-32.12-32.74c0-18.32,14.05-33.22,31.39-33.22
		c18.81,0,31.64,17.1,31.39,32.98H726.34z M779.72,502.39c-2.2-13.56-13.31-23.82-26.51-23.82c-13.31,0-24.31,10.26-26.38,23.82
		H779.72z"/>
	<path d="M853.98,538.43h-4.52v-15.15c-5.13,9.89-15.15,16.61-26.87,16.61c-17.34,0-31.39-14.66-31.39-32.74
		c0-18.32,14.05-33.22,31.39-33.22c11.73,0,21.74,6.84,26.87,16.86v-43.24h4.52V538.43z M822.59,478.57
		c-14.78,0-26.87,12.83-26.87,28.58c0,15.51,12.09,28.22,26.87,28.22c14.78,0,26.87-12.7,26.87-28.22
		C849.46,491.4,837.37,478.57,822.59,478.57z"/>
	<path d="M912.73,464.89h-4.52v-11.24h4.52V464.89z M912.73,538.43h-4.52v-62.91h4.52V538.43z"/>
	<path d="M983.82,538.43h-4.52v-37.99c0-13.8-7.45-22.11-21.25-22.11c-12.7,0-22.6,9.41-22.6,22.11v37.99h-4.52v-62.91h4.52v10.63
		c4.52-7.45,12.7-12.21,22.72-12.21c16.12,0,25.65,10.14,25.65,26.51V538.43z"/>
</g>
<circle cx="380.18" cy="512.51" r="110.04"/>
<path class="st0" d="M380.18,406.89c-58.33,0-105.62,47.29-105.62,105.62s47.29,105.62,105.62,105.62
	c58.33,0,105.62-47.29,105.62-105.62S438.52,406.89,380.18,406.89z M380.18,570.2c-31.86,0-57.69-25.83-57.69-57.69
	s25.83-57.69,57.69-57.69c31.86,0,57.69,25.83,57.69,57.69S412.04,570.2,380.18,570.2z"/>
<g>
	<path class="st1" d="M437.87,512.51c0,3-0.23,5.95-0.67,8.83l47.38,7.34c0.81-5.27,1.23-10.67,1.23-16.17
		c0-5.5-0.42-10.9-1.23-16.17l-47.38,7.34C437.64,506.56,437.87,509.51,437.87,512.51z"/>
	<path class="st1" d="M322.49,512.51c0-3,0.23-5.95,0.67-8.83l-47.38-7.34c-0.81,5.27-1.23,10.67-1.23,16.17
		c0,5.5,0.42,10.9,1.23,16.17l47.38-7.34C322.72,518.46,322.49,515.51,322.49,512.51z"/>
</g>
<circle class="st2" cx="380.18" cy="512.51" r="53.14"/>
<circle class="st3" cx="380.18" cy="512.51" r="3.75"/>
<g>
	<path class="st4" d="M354.85,553.54C354.85,553.54,354.85,553.54,354.85,553.54l-1.17-3.33l-1.76-5c-2.89,1.02-5.84,1.47-8.66,1.33
		c-2.3-3.85-4.41-8.43-6.15-13.39c-1.74-4.94-2.96-9.83-3.57-14.29c2.11-1.87,4.7-3.37,7.59-4.38l-2.13-6.06l-0.8-2.27l0,0
		l-0.59-1.67c-5.35,1.88-10.05,4.96-13.58,8.91l-1.54,1.72l0.21,2.29c0.54,5.94,2.07,12.6,4.41,19.26
		c2.35,6.68,5.33,12.83,8.61,17.79l1.27,1.92l2.27,0.38c1.63,0.27,3.3,0.41,4.98,0.41c3.71,0,7.51-0.66,11.18-1.95L354.85,553.54z"
		/>
	<path class="st4" d="M400.28,556.88l-7.22-2.57c-4.27-1.5-6.51-6.17-5.01-10.44l13.87-39.47c1.47-4.18,6.05-6.38,10.23-4.91
		l7.37,2.62c2.42,0.85,3.7,3.51,2.85,5.93l-16.16,45.99C405.36,556.46,402.7,557.73,400.28,556.88z"/>
	<path class="st4" d="M360.58,556.88l7.22-2.57c4.27-1.5,6.51-6.17,5.01-10.44l-13.87-39.47c-1.47-4.18-6.05-6.38-10.23-4.91
		l-7.37,2.62c-2.42,0.85-3.7,3.51-2.85,5.93l16.16,45.99C355.5,556.46,358.15,557.73,360.58,556.88z"/>
	<path class="st4" d="M436.34,513.38c-3.53-3.95-8.23-7.03-13.58-8.91l-0.59,1.67l0,0l-0.8,2.27l-2.13,6.06
		c2.89,1.02,5.48,2.51,7.59,4.38c-0.61,4.45-1.84,9.34-3.57,14.3c-1.74,4.94-3.84,9.52-6.15,13.38c-2.82,0.14-5.77-0.31-8.67-1.33
		l-1.76,5l-1.17,3.33l0,0l-0.58,1.67c3.68,1.29,7.47,1.95,11.18,1.95c1.69,0,3.36-0.14,4.99-0.41l2.27-0.38l1.27-1.92
		c3.29-4.97,6.27-11.12,8.61-17.79c2.35-6.68,3.87-13.34,4.41-19.27l0.21-2.29L436.34,513.38z"/>
	<path class="st4" d="M429.51,491.3c-3.75-20.83-23.14-34.92-49.33-34.92c-26.19,0-45.58,14.09-49.33,34.92l-4.77,0.32l1.44,21.56
		l13.96-0.93l-1.45-21.66c4.05-15.23,19.56-25.36,40.15-25.36c20.59,0,36.09,10.13,40.15,25.36l-1.45,21.67l13.96,0.93l1.44-21.56
		L429.51,491.3z"/>
	<path class="st4" d="M402.91,472.32c-0.96,0-1.92-0.19-2.85-0.6c-5.8-2.56-12.48-3.86-19.88-3.86c-7.4,0-14.09,1.3-19.88,3.86
		c-3.57,1.58-7.74-0.04-9.31-3.61c-1.58-3.57,0.04-7.74,3.61-9.32c7.6-3.36,16.21-5.06,25.59-5.06c9.38,0,17.99,1.7,25.59,5.06
		c3.57,1.58,5.18,5.75,3.61,9.32C408.21,470.75,405.63,472.32,402.91,472.32z"/>
</g>
</svg>
